<svg xmlns="http://www.w3.org/2000/svg" viewBox="0 0 720 360" role="img"><title>TalentBot · retrieval architecture</title><desc>Python / FastAPI · LangChain · FAISS · Groq</desc><defs><linearGradient id="edge"><stop stop-color="#7795bc"/><stop offset="1" stop-color="#bfa47d"/></linearGradient><radialGradient id="halo"><stop stop-color="#617d9c" stop-opacity=".17"/><stop offset="1" stop-color="#030405" stop-opacity="0"/></radialGradient><marker id="arrow" markerWidth="7" markerHeight="7" refX="6" refY="3.5" orient="auto"><path d="M0 0 7 3.5 0 7" fill="none" stroke="#8ca9cc"/></marker></defs><rect width="720" height="360" fill="#050607"/><ellipse cx="360" cy="185" rx="310" ry="180" fill="url(#halo)"/><g font-family="Arial,sans-serif"><text x="360" y="35" fill="#bfa47d" font-size="13" letter-spacing="2" text-anchor="middle">TALENTBOT · RETRIEVAL ARCHITECTURE</text><path d="M210 119H267" fill="none" stroke="url(#edge)" stroke-width="1.5" marker-end="url(#arrow)"/><path d="M447 119H504" fill="none" stroke="url(#edge)" stroke-width="1.5" marker-end="url(#arrow)"/><path d="M594 148V202" fill="none" stroke="url(#edge)" stroke-width="1.5" marker-end="url(#arrow)"/><path d="M504 231H447" fill="none" stroke="url(#edge)" stroke-width="1.5" marker-end="url(#arrow)"/><path d="M267 231H210" fill="none" stroke="url(#edge)" stroke-width="1.5" marker-end="url(#arrow)"/><rect x="30" y="90" width="180" height="58" rx="8" fill="#15181e" stroke="#455971"/><text x="120.0" y="114" text-anchor="middle" fill="#d8d7d4" font-size="15">Knowledge files</text><text x="120.0" y="133" text-anchor="middle" fill="#9ba6b5" font-size="11">Curated portfolio content</text><rect x="270" y="90" width="180" height="58" rx="8" fill="#15181e" stroke="#455971"/><text x="360.0" y="114" text-anchor="middle" fill="#d8d7d4" font-size="15">Chunk + embed</text><text x="360.0" y="133" text-anchor="middle" fill="#9ba6b5" font-size="11">Ingestion pipeline</text><rect x="510" y="90" width="180" height="58" rx="8" fill="#15181e" stroke="#455971"/><text x="600.0" y="114" text-anchor="middle" fill="#d8d7d4" font-size="15">FAISS indexes</text><text x="600.0" y="133" text-anchor="middle" fill="#9ba6b5" font-size="11">Knowledge domains</text><rect x="510" y="202" width="180" height="58" rx="8" fill="#15181e" stroke="#82715a"/><text x="600.0" y="226" text-anchor="middle" fill="#d8d7d4" font-size="15">Retrieve context</text><text x="600.0" y="245" text-anchor="middle" fill="#9ba6b5" font-size="11">Route question to a domain</text><rect x="270" y="202" width="180" height="58" rx="8" fill="#15181e" stroke="#82715a"/><text x="360.0" y="226" text-anchor="middle" fill="#d8d7d4" font-size="15">Groq / Llama</text><text x="360.0" y="245" text-anchor="middle" fill="#9ba6b5" font-size="11">Context + conversation</text><rect x="30" y="202" width="180" height="58" rx="8" fill="#15181e" stroke="#82715a"/><text x="120.0" y="226" text-anchor="middle" fill="#d8d7d4" font-size="15">Grounded answer</text><text x="120.0" y="245" text-anchor="middle" fill="#9ba6b5" font-size="11">Return to the chat</text><text x="360" y="335" fill="#8995a5" font-size="12" text-anchor="middle">Python / FastAPI · LangChain · FAISS · Groq</text></g></svg>